<?xml version="1.0" encoding="UTF-8" standalone="no"?>
<svg
   width="24"
   height="20"
   version="1.1"
   id="svg4"
   sodipodi:docname="icon-twitter.svg"
   inkscape:version="1.1 (c68e22c387, 2021-05-23)"
   xmlns:inkscape="http://www.inkscape.org/namespaces/inkscape"
   xmlns:sodipodi="http://sodipodi.sourceforge.net/DTD/sodipodi-0.dtd"
   xmlns="http://www.w3.org/2000/svg"
   xmlns:svg="http://www.w3.org/2000/svg">
  <defs
     id="defs8" />
  <sodipodi:namedview
     id="namedview6"
     pagecolor="#ffffff"
     bordercolor="#666666"
     borderopacity="1.0"
     inkscape:pageshadow="2"
     inkscape:pageopacity="0.0"
     inkscape:pagecheckerboard="0"
     showgrid="false"
     inkscape:zoom="23.9"
     inkscape:cx="12.008368"
     inkscape:cy="10"
     inkscape:window-width="813"
     inkscape:window-height="696"
     inkscape:window-x="202"
     inkscape:window-y="0"
     inkscape:window-maximized="0"
     inkscape:current-layer="svg4" />
  <path
     d="M 24,2.557 A 9.83,9.83 0 0 1 21.172,3.332 4.932,4.932 0 0 0 23.337,0.608 9.864,9.864 0 0 1 20.21,1.803 4.916,4.916 0 0 0 16.616,0.248 c -3.179,0 -5.515,2.966 -4.797,6.045 A 13.978,13.978 0 0 1 1.671,1.149 4.93,4.93 0 0 0 3.194,7.723 4.903,4.903 0 0 1 0.965,7.107 c -0.054,2.281 1.581,4.415 3.949,4.89 A 4.935,4.935 0 0 1 2.69,12.081 4.928,4.928 0 0 0 7.29,15.5 9.9,9.9 0 0 1 0,17.54 13.94,13.94 0 0 0 7.548,19.752 c 9.142,0 14.307,-7.721 13.995,-14.646 A 10.025,10.025 0 0 0 24,2.557 Z"
     fill="#4C545C"
     fill-rule="nonzero"
     id="path2"
     style="fill:#27baa8;fill-opacity:1;stroke-width:1" />
</svg>
